<svg width="20" height="20" viewBox="0 0 20 20" fill="none" xmlns="http://www.w3.org/2000/svg">
<path fill-rule="evenodd" clip-rule="evenodd" d="M10 1.5C5.313 1.5 1.5 5.313 1.5 10C1.5 14.687 5.313 18.5 10 18.5C14.687 18.5 18.5 14.687 18.5 10C18.5 5.313 14.687 1.5 10 1.5ZM10 20C4.486 20 0 15.514 0 10C0 4.486 4.486 0 10 0C15.514 0 20 4.486 20 10C20 15.514 15.514 20 10 20Z" fill="white"/>
<path fill-rule="evenodd" clip-rule="evenodd" d="M8.55858 14.2208C8.36658 14.2208 8.17358 14.1478 8.02758 13.9998C7.73558 13.7058 7.73658 13.2318 8.02958 12.9398L10.9816 9.9998L8.02958 7.0608C7.73658 6.7688 7.73558 6.2938 8.02758 5.9998C8.31958 5.7048 8.79358 5.7068 9.08758 5.9978L12.5736 9.4688C12.7146 9.6098 12.7936 9.8008 12.7936 9.9998C12.7936 10.1998 12.7146 10.3908 12.5736 10.5318L9.08758 14.0018C8.94158 14.1478 8.74958 14.2208 8.55858 14.2208Z" fill="white"/>
</svg>
